<svg xmlns="http://www.w3.org/2000/svg" width="520" height="520" viewBox="0 0 520 520">
<rect width="100%" height="100%" fill="#ffffff"/>
<text x="260" y="26" text-anchor="middle" font-family="sans-serif" font-size="15" fill="#111111">Guvenilirlik diyagrami - github.com/sharex/sharex</text>
<text x="260" y="46" text-anchor="middle" font-family="sans-serif" font-size="12" fill="#444444">test N = 2547</text>
<rect x="70" y="70" width="380" height="380" fill="none" stroke="#999999" stroke-width="1"/>
<line x1="70.00" y1="70" x2="70.00" y2="450" stroke="#eeeeee" stroke-width="1"/>
<line x1="70" y1="450.00" x2="450" y2="450.00" stroke="#eeeeee" stroke-width="1"/>
<text x="70.00" y="468" text-anchor="middle" font-family="sans-serif" font-size="11" fill="#444444">0.0</text>
<text x="60" y="454.00" text-anchor="end" font-family="sans-serif" font-size="11" fill="#444444">0.0</text>
<line x1="146.00" y1="70" x2="146.00" y2="450" stroke="#eeeeee" stroke-width="1"/>
<line x1="70" y1="374.00" x2="450" y2="374.00" stroke="#eeeeee" stroke-width="1"/>
<text x="146.00" y="468" text-anchor="middle" font-family="sans-serif" font-size="11" fill="#444444">0.2</text>
<text x="60" y="378.00" text-anchor="end" font-family="sans-serif" font-size="11" fill="#444444">0.2</text>
<line x1="222.00" y1="70" x2="222.00" y2="450" stroke="#eeeeee" stroke-width="1"/>
<line x1="70" y1="298.00" x2="450" y2="298.00" stroke="#eeeeee" stroke-width="1"/>
<text x="222.00" y="468" text-anchor="middle" font-family="sans-serif" font-size="11" fill="#444444">0.4</text>
<text x="60" y="302.00" text-anchor="end" font-family="sans-serif" font-size="11" fill="#444444">0.4</text>
<line x1="298.00" y1="70" x2="298.00" y2="450" stroke="#eeeeee" stroke-width="1"/>
<line x1="70" y1="222.00" x2="450" y2="222.00" stroke="#eeeeee" stroke-width="1"/>
<text x="298.00" y="468" text-anchor="middle" font-family="sans-serif" font-size="11" fill="#444444">0.6</text>
<text x="60" y="226.00" text-anchor="end" font-family="sans-serif" font-size="11" fill="#444444">0.6</text>
<line x1="374.00" y1="70" x2="374.00" y2="450" stroke="#eeeeee" stroke-width="1"/>
<line x1="70" y1="146.00" x2="450" y2="146.00" stroke="#eeeeee" stroke-width="1"/>
<text x="374.00" y="468" text-anchor="middle" font-family="sans-serif" font-size="11" fill="#444444">0.8</text>
<text x="60" y="150.00" text-anchor="end" font-family="sans-serif" font-size="11" fill="#444444">0.8</text>
<line x1="450.00" y1="70" x2="450.00" y2="450" stroke="#eeeeee" stroke-width="1"/>
<line x1="70" y1="70.00" x2="450" y2="70.00" stroke="#eeeeee" stroke-width="1"/>
<text x="450.00" y="468" text-anchor="middle" font-family="sans-serif" font-size="11" fill="#444444">1.0</text>
<text x="60" y="74.00" text-anchor="end" font-family="sans-serif" font-size="11" fill="#444444">1.0</text>
<line x1="70.00" y1="450.00" x2="450.00" y2="70.00" stroke="#000000" stroke-width="1" stroke-dasharray="5 4"/>
<polyline points="88.24,443.03 123.82,418.49 162.05,414.90 202.89,402.50 236.88,418.33 273.92,346.36 317.83,386.67 352.61,380.91 386.65,450.00" fill="none" stroke="#b5651d" stroke-width="2"/>
<circle cx="88.24" cy="443.03" r="3.5" fill="#b5651d"/>
<circle cx="123.82" cy="418.49" r="3.5" fill="#b5651d"/>
<circle cx="162.05" cy="414.90" r="3.5" fill="#b5651d"/>
<circle cx="202.89" cy="402.50" r="3.5" fill="#b5651d"/>
<circle cx="236.88" cy="418.33" r="3.5" fill="#b5651d"/>
<circle cx="273.92" cy="346.36" r="3.5" fill="#b5651d"/>
<circle cx="317.83" cy="386.67" r="3.5" fill="#b5651d"/>
<circle cx="352.61" cy="380.91" r="3.5" fill="#b5651d"/>
<circle cx="386.65" cy="450.00" r="3.5" fill="#b5651d"/>
<polyline points="87.09,441.08 123.33,415.33 161.39,408.85 198.44,396.35 236.29,365.56 277.15,412.00 315.61,362.31 343.18,450.00 376.93,450.00" fill="none" stroke="#1f6fb4" stroke-width="2"/>
<circle cx="87.09" cy="441.08" r="3.5" fill="#1f6fb4"/>
<circle cx="123.33" cy="415.33" r="3.5" fill="#1f6fb4"/>
<circle cx="161.39" cy="408.85" r="3.5" fill="#1f6fb4"/>
<circle cx="198.44" cy="396.35" r="3.5" fill="#1f6fb4"/>
<circle cx="236.29" cy="365.56" r="3.5" fill="#1f6fb4"/>
<circle cx="277.15" cy="412.00" r="3.5" fill="#1f6fb4"/>
<circle cx="315.61" cy="362.31" r="3.5" fill="#1f6fb4"/>
<circle cx="343.18" cy="450.00" r="3.5" fill="#1f6fb4"/>
<circle cx="376.93" cy="450.00" r="3.5" fill="#1f6fb4"/>
<polyline points="87.44,437.66 129.54,417.34 171.00,410.32 196.67,407.78 260.00,369.15" fill="none" stroke="#2e8b57" stroke-width="2"/>
<circle cx="87.44" cy="437.66" r="3.5" fill="#2e8b57"/>
<circle cx="129.54" cy="417.34" r="3.5" fill="#2e8b57"/>
<circle cx="171.00" cy="410.32" r="3.5" fill="#2e8b57"/>
<circle cx="196.67" cy="407.78" r="3.5" fill="#2e8b57"/>
<circle cx="260.00" cy="369.15" r="3.5" fill="#2e8b57"/>
<text x="260" y="502" text-anchor="middle" font-family="sans-serif" font-size="12" fill="#111111">ortalama tahmin olasiligi</text>
<text x="18" y="260" text-anchor="middle" font-family="sans-serif" font-size="12" fill="#111111" transform="rotate(-90 18 260)">gozlenen pozitif oran</text>
<line x1="82" y1="82" x2="110" y2="82" stroke="#b5651d" stroke-width="2"/>
<circle cx="96" cy="82" r="3" fill="#b5651d"/>
<text x="118" y="86" font-family="sans-serif" font-size="11" fill="#111111">ham</text>
<line x1="82" y1="100" x2="110" y2="100" stroke="#1f6fb4" stroke-width="2"/>
<circle cx="96" cy="100" r="3" fill="#1f6fb4"/>
<text x="118" y="104" font-family="sans-serif" font-size="11" fill="#111111">Platt</text>
<line x1="82" y1="118" x2="110" y2="118" stroke="#2e8b57" stroke-width="2"/>
<circle cx="96" cy="118" r="3" fill="#2e8b57"/>
<text x="118" y="122" font-family="sans-serif" font-size="11" fill="#111111">isotonic</text>
<line x1="82" y1="136" x2="110" y2="136" stroke="#000000" stroke-width="1" stroke-dasharray="5 4"/>
<text x="118" y="140" font-family="sans-serif" font-size="11" fill="#111111">ideal (y = x)</text>
</svg>
